<svg width="543" height="108" viewBox="0 0 543 108" fill="none" xmlns="http://www.w3.org/2000/svg">
<path d="M77.48 107L47.24 65.384L17.432 107H0.872L38.744 55.304L3.176 6.19999H19.592L47.816 44.936L75.752 6.19999H91.448L55.88 54.872L94.04 107H77.48Z" fill="#FF2D20"/>
<path d="M204.611 30.68C214.115 30.68 221.555 33.416 226.931 38.888C232.403 44.36 235.139 52.424 235.139 63.08V107H224.915V64.088C224.915 56.216 222.995 50.216 219.155 46.088C215.411 41.96 210.083 39.896 203.171 39.896C195.299 39.896 189.107 42.344 184.595 47.24C180.083 52.04 177.827 58.712 177.827 67.256V107H167.603V64.088C167.603 56.216 165.683 50.216 161.843 46.088C158.099 41.96 152.723 39.896 145.715 39.896C137.939 39.896 131.747 42.344 127.139 47.24C122.627 52.04 120.371 58.712 120.371 67.256V107H110.147V31.256H119.939V45.08C122.627 40.472 126.371 36.92 131.171 34.424C135.971 31.928 141.491 30.68 147.731 30.68C154.067 30.68 159.539 32.024 164.147 34.712C168.851 37.4 172.355 41.384 174.659 46.664C177.443 41.672 181.427 37.784 186.611 35C191.891 32.12 197.891 30.68 204.611 30.68ZM332.267 31.256V107H322.475V92.024C319.403 97.112 315.323 101 310.235 103.688C305.243 106.376 299.579 107.72 293.243 107.72C286.139 107.72 279.707 106.088 273.947 102.824C268.187 99.56 263.675 95 260.411 89.144C257.147 83.288 255.515 76.616 255.515 69.128C255.515 61.64 257.147 54.968 260.411 49.112C263.675 43.256 268.187 38.744 273.947 35.576C279.707 32.312 286.139 30.68 293.243 30.68C299.387 30.68 304.907 31.976 309.803 34.568C314.795 37.064 318.875 40.76 322.043 45.656V31.256H332.267ZM294.107 98.648C299.387 98.648 304.139 97.448 308.363 95.048C312.683 92.552 316.043 89.048 318.443 84.536C320.939 80.024 322.187 74.888 322.187 69.128C322.187 63.368 320.939 58.232 318.443 53.72C316.043 49.208 312.683 45.752 308.363 43.352C304.139 40.856 299.387 39.608 294.107 39.608C288.731 39.608 283.883 40.856 279.563 43.352C275.339 45.752 271.979 49.208 269.483 53.72C267.083 58.232 265.883 63.368 265.883 69.128C265.883 74.888 267.083 80.024 269.483 84.536C271.979 89.048 275.339 92.552 279.563 95.048C283.883 97.448 288.731 98.648 294.107 98.648ZM388.82 68.984L370.964 85.4V107H360.74V0.151994H370.964V72.584L416.18 31.256H428.852L396.452 62.216L431.876 107H419.348L388.82 68.984ZM513.177 72.296H449.817C450.393 80.168 453.417 86.552 458.889 91.448C464.361 96.248 471.273 98.648 479.625 98.648C484.329 98.648 488.649 97.832 492.585 96.2C496.521 94.472 499.929 91.976 502.809 88.712L508.569 95.336C505.209 99.368 500.985 102.44 495.897 104.552C490.905 106.664 485.385 107.72 479.337 107.72C471.561 107.72 464.649 106.088 458.601 102.824C452.649 99.464 447.993 94.856 444.633 89C441.273 83.144 439.593 76.52 439.593 69.128C439.593 61.736 441.177 55.112 444.345 49.256C447.609 43.4 452.025 38.84 457.593 35.576C463.257 32.312 469.593 30.68 476.601 30.68C483.609 30.68 489.897 32.312 495.465 35.576C501.033 38.84 505.401 43.4 508.569 49.256C511.737 55.016 513.321 61.64 513.321 69.128L513.177 72.296ZM476.601 39.464C469.305 39.464 463.161 41.816 458.169 46.52C453.273 51.128 450.489 57.176 449.817 64.664H503.529C502.857 57.176 500.025 51.128 495.033 46.52C490.137 41.816 483.993 39.464 476.601 39.464Z" fill="#363636"/>
<path d="M535.139 46.376C533.027 46.376 531.203 45.608 529.667 44.072C528.227 42.536 527.507 40.664 527.507 38.456C527.507 36.248 528.227 34.424 529.667 32.984C531.203 31.448 533.027 30.68 535.139 30.68C537.251 30.68 539.075 31.448 540.611 32.984C542.147 34.424 542.915 36.248 542.915 38.456C542.915 40.664 542.147 42.536 540.611 44.072C539.075 45.608 537.251 46.376 535.139 46.376ZM535.139 107.72C533.027 107.72 531.203 106.952 529.667 105.416C528.227 103.88 527.507 102.008 527.507 99.8C527.507 97.592 528.227 95.768 529.667 94.328C531.203 92.792 533.027 92.024 535.139 92.024C537.251 92.024 539.075 92.792 540.611 94.328C542.147 95.768 542.915 97.592 542.915 99.8C542.915 102.008 542.147 103.88 540.611 105.416C539.075 106.952 537.251 107.72 535.139 107.72Z" fill="#DBDADA"/>
</svg>
